<?xml version="1.0" standalone="no"?>
<!DOCTYPE svg PUBLIC "-//W3C//DTD SVG 20010904//EN"
 "http://www.w3.org/TR/2001/REC-SVG-20010904/DTD/svg10.dtd">
<svg version="1.0" xmlns="http://www.w3.org/2000/svg"
 width="260.000000pt" height="260.000000pt" viewBox="0 0 260.000000 260.000000"
 preserveAspectRatio="xMidYMid meet">
<metadata>
Created by potrace 1.14, written by Peter Selinger 2001-2017
</metadata>
<g transform="translate(0.000000,260.000000) scale(0.100000,-0.100000)"
fill="#000000" stroke="none">
<path d="M1085 2591 c-3 -6 -7 -103 -7 -216 l-1 -204 -26 -9 c-14 -5 -48 -10
-76 -11 -223 -12 -507 -148 -671 -322 -105 -112 -185 -240 -240 -385 -44 -117
-78 -344 -54 -359 6 -4 101 -7 211 -8 150 0 202 -4 210 -13 6 -7 13 -39 15
-71 15 -204 101 -423 228 -583 45 -56 178 -180 232 -218 107 -72 276 -147 374
-166 19 -3 46 -8 59 -11 67 -13 169 -17 175 -7 4 6 7 101 8 211 1 110 4 205 9
212 4 6 35 13 69 15 69 4 78 6 172 28 236 55 453 195 604 391 93 119 178 303
199 430 2 11 4 20 5 20 3 0 8 39 15 116 4 54 3 79 -5 84 -6 4 -101 7 -211 8
-147 0 -202 4 -210 13 -5 7 -12 39 -15 71 -26 320 -203 626 -465 804 -92 62
-236 127 -344 154 -112 29 -249 42 -260 26z m140 -453 c28 -5 88 -28 135 -51
159 -76 290 -238 334 -413 9 -34 16 -77 16 -96 0 -19 5 -39 12 -46 9 -9 70
-12 214 -12 146 0 205 -3 210 -12 23 -36 -16 -193 -72 -295 -96 -174 -263
-288 -464 -317 l-85 -12 -2 -204 c-1 -112 -5 -210 -7 -217 -13 -33 -167 -4
-286 55 -67 33 -178 128 -227 194 -48 65 -101 202 -110 287 -3 31 -10 62 -15
69 -8 9 -63 12 -214 12 -232 0 -226 -2 -213 83 29 183 125 339 269 436 100 68
143 83 338 117 22 4 22 4 22 215 0 253 -9 239 145 207z"/>
<path d="M1113 1608 c-59 -15 -63 -36 -62 -319 l1 -252 28 -29 c31 -31 61 -35
100 -15 62 32 186 100 195 107 6 4 46 26 90 50 142 75 163 90 173 119 19 53
-6 83 -115 144 -157 87 -195 108 -253 140 -30 16 -64 35 -75 41 -34 21 -49 23
-82 14z"/>
</g>
</svg>
